<?xml version="1.0" encoding="iso-8859-1"?>
<!-- Uploaded to: SVG Repo, www.svgrepo.com, Generator: SVG Repo Mixer Tools -->
<svg version="1.1" id="Layer_1" xmlns="http://www.w3.org/2000/svg" xmlns:xlink="http://www.w3.org/1999/xlink" 
	 viewBox="0 0 512 512" xml:space="preserve">
<path style="fill:#ABABAB;" d="M450.704,501.801H61.295v-33.885c0-31.19,25.285-56.475,56.475-56.475h276.46
	c31.19,0,56.475,25.285,56.475,56.475V501.801z"/>
<rect x="233.408" y="104.858" style="fill:#FFFFFF;" width="45.182" height="306.578"/>
<circle style="fill:#FF343B;" cx="255.999" cy="79.044" r="68.845"/>
<path d="M394.228,401.242H288.789V150.939c27.26-12.483,46.255-40.003,46.255-71.894C335.044,35.46,299.585,0,255.999,0
	s-79.045,35.46-79.045,79.045c0,31.891,18.995,59.411,46.255,71.894v250.303H117.771c-36.764,0-66.674,29.909-66.674,66.673v33.886
	c0,5.632,4.566,10.199,10.199,10.199h389.409c5.633,0,10.199-4.567,10.199-10.199v-33.886
	C460.903,431.151,430.993,401.242,394.228,401.242z M197.353,79.045c0-32.338,26.309-58.646,58.646-58.646
	s58.646,26.309,58.646,58.646s-26.309,58.646-58.646,58.646S197.353,111.382,197.353,79.045z M243.608,157.112
	c4.039,0.638,8.176,0.978,12.391,0.978c4.215,0,8.352-0.34,12.391-0.978v244.131h-24.782L243.608,157.112L243.608,157.112z
	 M394.228,421.64c25.516,0,46.276,20.759,46.276,46.275v23.687H71.495v-23.687c0-25.516,20.759-46.275,46.276-46.275H394.228z"/>
<path d="M396.38,446.421h-4.842c-5.633,0-10.199,4.567-10.199,10.199c0,5.632,4.566,10.199,10.199,10.199h4.842
	c5.633,0,10.199-4.567,10.199-10.199C406.58,450.988,402.013,446.421,396.38,446.421z"/>
<path d="M351.738,446.421h-236.12c-5.633,0-10.199,4.567-10.199,10.199c0,5.632,4.566,10.199,10.199,10.199h236.12
	c5.633,0,10.199-4.567,10.199-10.199C361.938,450.988,357.371,446.421,351.738,446.421z"/>
</svg>