<?xml version="1.0" encoding="iso-8859-1"?>
<!-- Uploaded to: SVG Repo, www.svgrepo.com, Generator: SVG Repo Mixer Tools -->
<svg height="800px" width="800px" version="1.1" id="Layer_1" xmlns="http://www.w3.org/2000/svg" xmlns:xlink="http://www.w3.org/1999/xlink" 
	 viewBox="0 0 511.999 511.999" xml:space="preserve">
<path style="fill:#6DABE4;" d="M276.424,104.385L276.424,104.385c0-9.066-7.35-16.416-16.416-16.416H72.489
	c-9.066,0-16.416,7.35-16.416,16.416l0,0c0,9.066,7.35,16.416,16.416,16.416h19.292c9.066,0,16.416,7.35,16.416,16.416l0,0
	c0,9.066-7.35,16.416-16.416,16.416H49.783c-9.066,0-16.416,7.35-16.416,16.416l0,0c0,9.066,7.35,16.416,16.416,16.416h192.261
	c9.066,0,16.416-7.35,16.416-16.416l0,0c0-9.066-7.35-16.416-16.416-16.416H226.97c-9.066,0-16.416-7.35-16.416-16.416l0,0
	c0-9.066,7.35-16.416,16.416-16.416h33.038C269.074,120.802,276.424,113.452,276.424,104.385z"/>
<path style="opacity:0.1;enable-background:new    ;" d="M65.883,153.636h-16.1c-9.066,0-16.416,7.35-16.416,16.416
	c0,9.066,7.35,16.416,16.416,16.416h16.1c-9.066,0-16.416-7.35-16.416-16.416C49.467,160.986,56.817,153.636,65.883,153.636z
	 M107.881,120.802h-16.1c9.066,0,16.416,7.35,16.416,16.416s-7.35,16.416-16.416,16.416h16.1c9.066,0,16.416-7.35,16.416-16.416
	C124.298,128.152,116.948,120.802,107.881,120.802z M88.589,87.968h-16.1c-9.066,0-16.416,7.35-16.416,16.416
	s7.35,16.416,16.416,16.416h16.1c-9.066,0-16.416-7.35-16.416-16.416S79.523,87.968,88.589,87.968z"/>
<path style="fill:#B07C57;" d="M494.155,454.032c7.518,0,12.216-8.138,8.457-14.648L295.584,80.8
	c-17.576-30.443-61.515-30.443-79.092,0L9.387,439.382c-3.76,6.51,0.938,14.649,8.456,14.649h476.313V454.032z"/>
<path style="fill:#99DAEA;" d="M295.584,80.8c-17.576-30.443-61.515-30.443-79.092,0l-73.37,127.081
	c33.44,18.6,71.937,29.207,112.916,29.207c40.979,0,79.475-10.609,112.917-29.207L295.584,80.8z"/>
<path style="opacity:0.1;enable-background:new    ;" d="M9.387,439.382c-3.76,6.51,0.938,14.649,8.456,14.649h70.331l108.6-339.089
	L9.387,439.382z"/>
<path style="fill:#65513C;" d="M167.721,265.752c-12.909-22.359-45.183-22.359-58.091,0L9.382,439.385
	c-3.759,6.51,0.939,14.648,8.457,14.648h258.585L167.721,265.752z"/>
<path style="fill:#99DAEA;" d="M167.721,265.752c-12.909-22.359-45.183-22.359-58.091,0l-31.596,54.727
	c16.242,13.534,37.127,21.681,59.92,21.681c23.251,0,44.506-8.49,60.883-22.515L167.721,265.752z"/>
<path style="opacity:0.1;enable-background:new    ;" d="M9.382,439.385c-3.759,6.51,0.939,14.648,8.457,14.648H49.79
	l52.628-175.789L9.382,439.385z"/>
<path style="fill:#FFFFFF;" d="M405.861,327.189L405.861,327.189c0-9.066-7.35-16.417-16.416-16.417H251.366
	c-9.067,0-16.416,7.35-16.416,16.417l0,0c0,9.067,7.35,16.417,16.416,16.417h15.76c9.066,0,16.416,7.35,16.416,16.417l0,0
	c0,9.066-7.35,16.416-16.416,16.416h-53.769c-9.066,0-16.416,7.35-16.416,16.417l0,0c0,9.066,7.35,16.417,16.416,16.417h158.124
	c9.066,0,16.416-7.35,16.416-16.417l0,0c0-9.066-7.35-16.417-16.416-16.417h-10.366c-9.066,0-16.417-7.35-16.417-16.416l0,0
	c0-9.066,7.35-16.417,16.417-16.417h28.329C398.51,343.606,405.861,336.256,405.861,327.189z"/>
<path style="opacity:0.1;enable-background:new    ;" d="M227.668,376.439h-14.311c-9.066,0-16.416,7.35-16.416,16.416
	s7.35,16.417,16.416,16.417h14.311c-9.066,0-16.416-7.35-16.416-16.417C211.252,383.79,218.601,376.439,227.668,376.439z
	 M281.438,343.606h-14.311c9.066,0,16.416,7.35,16.416,16.417c0,9.066-7.35,16.417-16.416,16.417h14.311
	c9.066,0,16.417-7.35,16.417-16.417C297.854,350.957,290.505,343.606,281.438,343.606z M265.678,310.772h-14.311
	c-9.067,0-16.416,7.35-16.416,16.417s7.35,16.417,16.416,16.417h14.311c-9.067,0-16.418-7.35-16.418-16.417
	S256.611,310.772,265.678,310.772z"/>
<path style="fill:#1E252B;" d="M509.584,435.36L302.555,76.775c-9.709-16.817-27.099-26.857-46.518-26.857
	s-36.809,10.04-46.516,26.856l-1.816,3.144H72.489c-13.491,0-24.466,10.976-24.466,24.466s10.976,24.466,24.466,24.466h19.292
	c4.613,0,8.367,3.753,8.367,8.367s-3.753,8.367-8.367,8.367H49.783c-13.491,0-24.466,10.976-24.466,24.466
	s10.976,24.466,24.466,24.466h91.733l-38.273,66.265c-0.193,0.316-0.399,0.62-0.586,0.943l0.031,0.018L2.416,435.356
	c-3.221,5.577-3.222,12.238-0.002,17.816c3.22,5.578,8.988,8.909,15.429,8.909h476.313c6.44,0,12.208-3.329,15.428-8.908
	C512.804,447.597,512.804,440.937,509.584,435.36z M49.783,178.42c-4.613,0-8.367-3.753-8.367-8.367
	c0-4.613,3.753-8.367,8.367-8.367h41.998c13.491,0,24.466-10.976,24.466-24.466s-10.976-24.466-24.466-24.466H72.489
	c-4.613,0-8.367-3.753-8.367-8.367c0-4.613,3.753-8.367,8.367-8.367h125.918l-47.592,82.401H49.783V178.42z M17.842,445.982
	c-0.818,0-1.259-0.467-1.485-0.858c-0.225-0.391-0.409-1.007,0.001-1.715l100.83-174.576c4.7-7.405,12.646-11.8,21.488-11.8
	c9.214,0,17.466,4.764,22.074,12.745l56.934,98.613h-4.327c-13.491,0-24.466,10.976-24.466,24.466s10.976,24.466,24.466,24.466
	h32.579l16.545,28.659H17.842z M267.127,335.555h-15.761c-4.613,0-8.367-3.753-8.367-8.367s3.753-8.367,8.367-8.367h138.078
	c4.613,0,8.367,3.752,8.367,8.367c0,4.613-3.753,8.367-8.367,8.367h-28.329c-13.491,0-24.466,10.976-24.466,24.466
	c0,13.491,10.976,24.466,24.466,24.466h10.366c4.613,0,8.367,3.753,8.367,8.367s-3.753,8.367-8.367,8.367H213.358
	c-4.613,0-8.367-3.753-8.367-8.367s3.753-8.367,8.367-8.367h53.77c13.491,0,24.466-10.976,24.466-24.466
	C291.595,346.531,280.619,335.555,267.127,335.555z M495.642,445.124c-0.225,0.392-0.668,0.858-1.485,0.858H281.072l-16.545-28.659
	h106.955c13.491,0,24.466-10.976,24.466-24.466c0-13.491-10.976-24.466-24.466-24.466h-10.366c-4.613,0-8.367-3.753-8.367-8.367
	s3.753-8.367,8.367-8.367h28.329c13.491,0,24.466-10.976,24.466-24.466s-10.976-24.466-24.466-24.466H251.367
	c-13.491,0-24.466,10.975-24.466,24.466c0,13.491,10.976,24.466,24.466,24.466h15.761c4.613,0,8.367,3.753,8.367,8.367
	s-3.753,8.367-8.367,8.367h-30.853l-61.582-106.663c-7.518-13.02-20.981-20.795-36.018-20.795c-1.889,0-3.752,0.123-5.583,0.364
	l90.372-156.471c6.798-11.777,18.976-18.807,32.574-18.807c13.598,0,25.776,7.03,32.575,18.807l207.028,358.585
	C496.051,444.118,495.867,444.733,495.642,445.124z"/>
</svg>