<?xml version="1.0" encoding="iso-8859-1"?>
<!-- Uploaded to: SVG Repo, www.svgrepo.com, Generator: SVG Repo Mixer Tools -->
<svg version="1.1" id="Layer_1" xmlns="http://www.w3.org/2000/svg" xmlns:xlink="http://www.w3.org/1999/xlink" 
	 viewBox="0 0 480.197 480.197" xml:space="preserve">
<g>
	<polygon style="fill:#DA544A;" points="272.099,20.957 272.099,68.197 324.579,47.197 	"/>
	<polygon style="fill:#DA544A;" points="32.099,20.957 32.099,68.197 84.579,47.197 	"/>
</g>
<path style="fill:#E07940;" d="M240.099,416.005c-8.824,0-16,7.176-16,16v32.192h32v-32.192
	C256.099,423.189,248.915,416.005,240.099,416.005z"/>
<polygon style="fill:#DA544A;" points="152.099,20.957 152.099,68.197 204.579,47.197 "/>
<path style="fill:#9CD9F1;" d="M16.099,464.197h192v-32.192c0-17.648,14.352-32,32-32s32,14.352,32,32v32.192h192v-312h-448V464.197
	z M424.099,168.005h16v16h-16V168.005z M424.099,200.005h16v16h-16V200.005z M424.099,232.005h16v16h-16V232.005z M424.099,264.005
	h16v16h-16V264.005z M424.099,296.005h16v16h-16V296.005z M424.099,328.005h16v16h-16V328.005z M392.099,168.005h16v16h-16V168.005z
	 M392.099,200.005h16v16h-16V200.005z M392.099,232.005h16v16h-16V232.005z M392.099,264.005h16v16h-16V264.005z M392.099,296.005
	h16v16h-16V296.005z M392.099,328.005h16v16h-16V328.005z M392.099,360.005h16v16h-16V360.005z M360.099,168.005h16v16h-16V168.005z
	 M360.099,200.005h16v16h-16V200.005z M360.099,232.005h16v16h-16V232.005z M360.099,264.005h16v16h-16V264.005z M360.099,296.005
	h16v16h-16V296.005z M360.099,328.005h16v16h-16V328.005z M328.099,168.005h16v16h-16V168.005z M328.099,200.005h16v16h-16V200.005z
	 M328.099,232.005h16v16h-16V232.005z M328.099,264.005h16v16h-16V264.005z M328.099,296.005h16v16h-16V296.005z M328.099,328.005
	h16v16h-16V328.005z M328.099,360.005h16v16h-16V360.005z M296.099,168.005h16v16h-16V168.005z M296.099,200.005h16v16h-16V200.005z
	 M296.099,232.005h16v16h-16V232.005z M296.099,264.005h16v16h-16V264.005z M296.099,296.005h16v16h-16V296.005z M296.099,328.005
	h16v16h-16V328.005z M264.099,168.005h16v16h-16V168.005z M264.099,200.005h16v16h-16V200.005z M264.099,232.005h16v16h-16V232.005z
	 M264.099,264.005h16v16h-16V264.005z M264.099,296.005h16v16h-16V296.005z M264.099,328.005h16v16h-16V328.005z M264.099,360.005
	h16v16h-16V360.005z M232.099,168.005h16v16h-16V168.005z M232.099,200.005h16v16h-16V200.005z M232.099,232.005h16v16h-16V232.005z
	 M232.099,264.005h16v16h-16V264.005z M232.099,296.005h16v16h-16V296.005z M232.099,328.005h16v16h-16V328.005z M200.099,168.005
	h16v16h-16V168.005z M200.099,200.005h16v16h-16V200.005z M200.099,232.005h16v16h-16V232.005z M200.099,264.005h16v16h-16V264.005z
	 M200.099,296.005h16v16h-16V296.005z M200.099,328.005h16v16h-16V328.005z M200.099,360.005h16v16h-16V360.005z M168.099,168.005
	h16v16h-16V168.005z M168.099,200.005h16v16h-16V200.005z M168.099,232.005h16v16h-16V232.005z M168.099,264.005h16v16h-16V264.005z
	 M168.099,296.005h16v16h-16V296.005z M168.099,328.005h16v16h-16V328.005z M136.099,168.005h16v16h-16V168.005z M136.099,200.005
	h16v16h-16V200.005z M136.099,232.005h16v16h-16V232.005z M136.099,264.005h16v16h-16V264.005z M136.099,296.005h16v16h-16V296.005z
	 M136.099,328.005h16v16h-16V328.005z M136.099,360.005h16v16h-16V360.005z M104.099,168.005h16v16h-16V168.005z M104.099,200.005
	h16v16h-16V200.005z M104.099,232.005h16v16h-16V232.005z M104.099,264.005h16v16h-16V264.005z M104.099,296.005h16v16h-16V296.005z
	 M104.099,328.005h16v16h-16V328.005z M72.099,168.005h16v16h-16V168.005z M72.099,200.005h16v16h-16V200.005z M72.099,232.005h16
	v16h-16V232.005z M72.099,264.005h16v16h-16V264.005z M72.099,296.005h16v16h-16V296.005z M72.099,328.005h16v16h-16V328.005z
	 M72.099,360.005h16v16h-16V360.005z M40.099,168.005h16v16h-16V168.005z M40.099,200.005h16v16h-16V200.005z M40.099,232.005h16v16
	h-16V232.005z M40.099,264.005h16v16h-16V264.005z M40.099,296.005h16v16h-16V296.005z M40.099,328.005h16v16h-16V328.005z"/>
<polygon style="fill:#DA544A;" points="392.099,20.957 392.099,68.197 444.579,47.197 "/>
<g>
	<path style="fill:#334C5B;" d="M472.099,136.197h-80V85.421l74.968-29.984c2.928-1.176,4.888-3.952,5.024-7.096
		c0.136-3.152-1.592-6.088-4.416-7.496l-80-40c-2.488-1.232-5.424-1.12-7.784,0.352c-2.352,1.464-3.792,4.04-3.792,6.808v128.192
		h-104V85.421l74.968-29.984c2.928-1.176,4.888-3.952,5.024-7.096c0.136-3.152-1.592-6.088-4.416-7.496l-80-40
		c-2.488-1.232-5.432-1.12-7.784,0.352c-2.352,1.464-3.792,4.04-3.792,6.808v128.192h-104V85.421l74.968-29.984
		c2.928-1.176,4.888-3.952,5.024-7.096c0.136-3.152-1.592-6.088-4.416-7.496l-80-40c-2.488-1.232-5.432-1.12-7.784,0.352
		c-2.352,1.464-3.792,4.04-3.792,6.808v128.192h-104V85.421l74.968-29.984c2.928-1.176,4.888-3.952,5.024-7.096
		c0.136-3.152-1.592-6.088-4.416-7.496l-80-40c-2.488-1.232-5.424-1.12-7.784,0.352c-2.352,1.464-3.792,4.04-3.792,6.808v128.192h-8
		c-4.424,0-8,3.392-8,7.808v328c0,4.424,3.576,8.192,8,8.192h208h48h208c4.424,0,8-3.768,8-8.192v-328
		C480.099,139.589,476.523,136.197,472.099,136.197z M392.099,20.957l52.48,26.24l-52.48,21V20.957z M272.099,20.957l52.48,26.24
		l-52.48,21V20.957z M152.099,20.957l52.48,26.24l-52.48,21V20.957z M32.099,20.957l52.48,26.24l-52.48,21V20.957z M256.099,464.197
		h-32v-32.192c0-8.824,7.176-16,16-16c8.816,0,16,7.176,16,16V464.197z M464.099,464.197h-192v-32.192c0-17.648-14.352-32-32-32
		s-32,14.352-32,32v32.192h-192v-312h448V464.197z"/>
	<rect x="40.099" y="168.005" style="fill:#334C5B;" width="16" height="16"/>
	<rect x="72.099" y="168.005" style="fill:#334C5B;" width="16" height="16"/>
	<rect x="104.099" y="168.005" style="fill:#334C5B;" width="16" height="16"/>
	<rect x="136.099" y="168.005" style="fill:#334C5B;" width="16" height="16"/>
	<rect x="168.099" y="168.005" style="fill:#334C5B;" width="16" height="16"/>
	<rect x="200.099" y="168.005" style="fill:#334C5B;" width="16" height="16"/>
	<rect x="232.099" y="168.005" style="fill:#334C5B;" width="16" height="16"/>
	<rect x="264.099" y="168.005" style="fill:#334C5B;" width="16" height="16"/>
	<rect x="296.099" y="168.005" style="fill:#334C5B;" width="16" height="16"/>
	<rect x="328.099" y="168.005" style="fill:#334C5B;" width="16" height="16"/>
	<rect x="360.099" y="168.005" style="fill:#334C5B;" width="16" height="16"/>
	<rect x="392.099" y="168.005" style="fill:#334C5B;" width="16" height="16"/>
	<rect x="424.099" y="168.005" style="fill:#334C5B;" width="16" height="16"/>
	<rect x="40.099" y="200.005" style="fill:#334C5B;" width="16" height="16"/>
	<rect x="72.099" y="200.005" style="fill:#334C5B;" width="16" height="16"/>
	<rect x="104.099" y="200.005" style="fill:#334C5B;" width="16" height="16"/>
	<rect x="136.099" y="200.005" style="fill:#334C5B;" width="16" height="16"/>
	<rect x="168.099" y="200.005" style="fill:#334C5B;" width="16" height="16"/>
	<rect x="200.099" y="200.005" style="fill:#334C5B;" width="16" height="16"/>
	<rect x="232.099" y="200.005" style="fill:#334C5B;" width="16" height="16"/>
	<rect x="264.099" y="200.005" style="fill:#334C5B;" width="16" height="16"/>
	<rect x="296.099" y="200.005" style="fill:#334C5B;" width="16" height="16"/>
	<rect x="328.099" y="200.005" style="fill:#334C5B;" width="16" height="16"/>
	<rect x="360.099" y="200.005" style="fill:#334C5B;" width="16" height="16"/>
	<rect x="392.099" y="200.005" style="fill:#334C5B;" width="16" height="16"/>
	<rect x="424.099" y="200.005" style="fill:#334C5B;" width="16" height="16"/>
	<rect x="40.099" y="232.005" style="fill:#334C5B;" width="16" height="16"/>
	<rect x="72.099" y="232.005" style="fill:#334C5B;" width="16" height="16"/>
	<rect x="104.099" y="232.005" style="fill:#334C5B;" width="16" height="16"/>
	<rect x="136.099" y="232.005" style="fill:#334C5B;" width="16" height="16"/>
	<rect x="168.099" y="232.005" style="fill:#334C5B;" width="16" height="16"/>
	<rect x="200.099" y="232.005" style="fill:#334C5B;" width="16" height="16"/>
	<rect x="232.099" y="232.005" style="fill:#334C5B;" width="16" height="16"/>
	<rect x="264.099" y="232.005" style="fill:#334C5B;" width="16" height="16"/>
	<rect x="296.099" y="232.005" style="fill:#334C5B;" width="16" height="16"/>
	<rect x="328.099" y="232.005" style="fill:#334C5B;" width="16" height="16"/>
	<rect x="360.099" y="232.005" style="fill:#334C5B;" width="16" height="16"/>
	<rect x="392.099" y="232.005" style="fill:#334C5B;" width="16" height="16"/>
	<rect x="424.099" y="232.005" style="fill:#334C5B;" width="16" height="16"/>
	<rect x="40.099" y="264.005" style="fill:#334C5B;" width="16" height="16"/>
	<rect x="72.099" y="264.005" style="fill:#334C5B;" width="16" height="16"/>
	<rect x="104.099" y="264.005" style="fill:#334C5B;" width="16" height="16"/>
	<rect x="136.099" y="264.005" style="fill:#334C5B;" width="16" height="16"/>
	<rect x="168.099" y="264.005" style="fill:#334C5B;" width="16" height="16"/>
	<rect x="200.099" y="264.005" style="fill:#334C5B;" width="16" height="16"/>
	<rect x="232.099" y="264.005" style="fill:#334C5B;" width="16" height="16"/>
	<rect x="264.099" y="264.005" style="fill:#334C5B;" width="16" height="16"/>
	<rect x="296.099" y="264.005" style="fill:#334C5B;" width="16" height="16"/>
	<rect x="328.099" y="264.005" style="fill:#334C5B;" width="16" height="16"/>
	<rect x="360.099" y="264.005" style="fill:#334C5B;" width="16" height="16"/>
	<rect x="392.099" y="264.005" style="fill:#334C5B;" width="16" height="16"/>
	<rect x="424.099" y="264.005" style="fill:#334C5B;" width="16" height="16"/>
	<rect x="40.099" y="296.005" style="fill:#334C5B;" width="16" height="16"/>
	<rect x="72.099" y="296.005" style="fill:#334C5B;" width="16" height="16"/>
	<rect x="104.099" y="296.005" style="fill:#334C5B;" width="16" height="16"/>
	<rect x="136.099" y="296.005" style="fill:#334C5B;" width="16" height="16"/>
	<rect x="168.099" y="296.005" style="fill:#334C5B;" width="16" height="16"/>
	<rect x="200.099" y="296.005" style="fill:#334C5B;" width="16" height="16"/>
	<rect x="232.099" y="296.005" style="fill:#334C5B;" width="16" height="16"/>
	<rect x="264.099" y="296.005" style="fill:#334C5B;" width="16" height="16"/>
	<rect x="296.099" y="296.005" style="fill:#334C5B;" width="16" height="16"/>
	<rect x="328.099" y="296.005" style="fill:#334C5B;" width="16" height="16"/>
	<rect x="360.099" y="296.005" style="fill:#334C5B;" width="16" height="16"/>
	<rect x="392.099" y="296.005" style="fill:#334C5B;" width="16" height="16"/>
	<rect x="424.099" y="296.005" style="fill:#334C5B;" width="16" height="16"/>
	<rect x="40.099" y="328.005" style="fill:#334C5B;" width="16" height="16"/>
	<rect x="72.099" y="328.005" style="fill:#334C5B;" width="16" height="16"/>
	<rect x="104.099" y="328.005" style="fill:#334C5B;" width="16" height="16"/>
	<rect x="136.099" y="328.005" style="fill:#334C5B;" width="16" height="16"/>
	<rect x="168.099" y="328.005" style="fill:#334C5B;" width="16" height="16"/>
	<rect x="200.099" y="328.005" style="fill:#334C5B;" width="16" height="16"/>
	<rect x="232.099" y="328.005" style="fill:#334C5B;" width="16" height="16"/>
	<rect x="264.099" y="328.005" style="fill:#334C5B;" width="16" height="16"/>
	<rect x="296.099" y="328.005" style="fill:#334C5B;" width="16" height="16"/>
	<rect x="328.099" y="328.005" style="fill:#334C5B;" width="16" height="16"/>
	<rect x="360.099" y="328.005" style="fill:#334C5B;" width="16" height="16"/>
	<rect x="392.099" y="328.005" style="fill:#334C5B;" width="16" height="16"/>
	<rect x="72.099" y="360.005" style="fill:#334C5B;" width="16" height="16"/>
	<rect x="136.099" y="360.005" style="fill:#334C5B;" width="16" height="16"/>
	<rect x="200.099" y="360.005" style="fill:#334C5B;" width="16" height="16"/>
	<rect x="264.099" y="360.005" style="fill:#334C5B;" width="16" height="16"/>
	<rect x="328.099" y="360.005" style="fill:#334C5B;" width="16" height="16"/>
	<rect x="392.099" y="360.005" style="fill:#334C5B;" width="16" height="16"/>
	<rect x="424.099" y="328.005" style="fill:#334C5B;" width="16" height="16"/>
</g>
</svg>