<?xml version="1.0" encoding="iso-8859-1"?>
<!-- Uploaded to: SVG Repo, www.svgrepo.com, Generator: SVG Repo Mixer Tools -->
<svg height="800px" width="800px" version="1.1" id="Layer_1" xmlns="http://www.w3.org/2000/svg" xmlns:xlink="http://www.w3.org/1999/xlink" 
	 viewBox="0 0 511.999 511.999" xml:space="preserve">
<path style="fill:#75EBE5;" d="M38.757,159.641c0-23.451-14.386-42.704-26.717-44.807c-1.204,6.289-1.841,12.779-1.841,19.419
	v53.084c0,5.851,0.497,11.585,1.436,17.168C24.054,202.763,38.757,183.351,38.757,159.641z"/>
<path style="fill:#F92859;" d="M12.04,114.834c12.331,2.102,26.717,21.355,26.717,44.807c0,23.709-14.703,43.122-27.122,44.864
	c8.172,48.548,50.397,85.537,101.269,85.537h43.851V31.548h-43.85C62.822,31.548,21.119,67.398,12.04,114.834z"/>
<path style="fill:#75EBE5;" d="M501.801,134.254c0-6.64-0.637-13.129-1.841-19.419c-12.331,2.102-26.717,21.355-26.717,44.807
	c0,23.709,14.703,43.122,27.122,44.864c0.939-5.583,1.436-11.317,1.436-17.168V134.254z"/>
<path style="fill:#F92859;" d="M473.243,159.641c0-23.451,14.386-42.704,26.717-44.807c-9.078-47.437-50.781-83.287-100.864-83.287
	h-43.851v258.495h43.85c50.872,0,93.097-36.988,101.269-85.537C487.946,202.763,473.243,183.351,473.243,159.641z"/>
<g>
	<path style="fill:#FFFFFF;" d="M230.612,83.478c0-28.68-23.25-51.929-51.929-51.929h-21.926v258.495h21.926v122.323h51.929V83.478z
		"/>
	<path style="fill:#FFFFFF;" d="M281.388,83.478c0-28.68,23.25-51.929,51.929-51.929h21.926v258.495h-21.926v122.323h-51.929V83.478
		z"/>
</g>
<g>
	<path style="fill:#333333;" d="M333.318,21.348c-34.258,0-62.129,27.871-62.129,62.129v328.888c0,5.633,4.566,10.199,10.199,10.199
		h1.34v57.887c0,5.633,4.566,10.199,10.199,10.199s10.199-4.566,10.199-10.199v-57.887h30.191c5.633,0,10.199-4.566,10.199-10.199
		V300.242h55.578c26.853,0,52.875-9.59,73.27-27.005c20.163-17.216,33.679-41.024,38.056-67.038
		c1.046-6.22,1.578-12.566,1.578-18.861v-53.084c0-7.143-0.68-14.322-2.024-21.336c-10.155-53.058-56.787-91.568-110.882-91.568
		H333.318z M491.594,133.131c0.004,0.374,0.007,0.749,0.007,1.123v51.846c-4.409-6.212-8.159-15.49-8.159-26.458
		C483.442,148.595,487.18,139.322,491.594,133.131z M333.318,279.843c-5.633,0-10.199,4.566-10.199,10.199v112.124h-31.532V83.478
		c0-23.01,18.72-41.731,41.731-41.731h11.727v238.096H333.318z M399.095,279.843h-33.652V41.747h24.607v166.362
		c0,5.633,4.566,10.199,10.199,10.199s10.199-4.566,10.199-10.199V42.459c36.652,4.52,67.392,30.623,77.579,66.256
		c-14.283,8.68-24.983,29.349-24.983,50.927c0,21.638,11.104,42.668,25.543,51.205C478.079,251.281,441.665,279.843,399.095,279.843
		z"/>
	<path style="fill:#333333;" d="M112.905,21.348c-54.095,0-100.726,38.51-110.882,91.568C0.68,119.932,0,127.111,0,134.254v53.084
		c0,6.295,0.531,12.641,1.578,18.861c4.379,26.013,17.893,49.821,38.056,67.037c20.395,17.415,46.417,27.005,73.27,27.005h55.579
		v112.124c0,5.633,4.566,10.199,10.199,10.199h30.191v57.887c0,5.633,4.566,10.199,10.199,10.199
		c5.633,0,10.199-4.566,10.199-10.199v-57.887h1.34c5.633,0,10.199-4.566,10.199-10.199V83.478
		c0-34.258-27.871-62.129-62.129-62.129H112.905z M146.557,279.843H121.95V41.747h24.608V279.843z M20.398,186.099v-51.846
		c0-0.374,0.002-0.749,0.007-1.123c4.414,6.191,8.152,15.464,8.152,26.511C28.558,170.61,24.808,179.887,20.398,186.099z
		 M23.413,210.847c14.439-8.537,25.543-29.568,25.543-51.205c0-21.577-10.7-42.247-24.984-50.927
		C34.16,73.082,64.9,46.98,101.551,42.459v236.681C63.979,274.574,32.972,247.633,23.413,210.847z M178.682,279.843h-11.727V41.747
		h11.727c23.01,0,41.731,18.72,41.731,41.731v318.688h-31.532V290.042C188.881,284.409,184.315,279.843,178.682,279.843z"/>
	<path style="fill:#333333;" d="M400.249,233.684c-5.633,0-10.199,4.566-10.199,10.199v5.77c0,5.633,4.566,10.199,10.199,10.199
		s10.199-4.566,10.199-10.199v-5.77C410.449,238.25,405.882,233.684,400.249,233.684z"/>
</g>
</svg>