<?xml version="1.0" encoding="iso-8859-1"?>
<!-- Uploaded to: SVG Repo, www.svgrepo.com, Generator: SVG Repo Mixer Tools -->
<svg version="1.1" id="Layer_1" xmlns="http://www.w3.org/2000/svg" xmlns:xlink="http://www.w3.org/1999/xlink" 
	 viewBox="0 0 512.001 512.001" xml:space="preserve">
<rect x="191.884" y="24.331" style="fill:#CCA400;" width="44.258" height="335.558"/>
<polygon style="fill:#EEBF00;" points="236.139,50.527 424.535,148.276 236.139,246.025 "/>
<polygon style="fill:#FFE477;" points="348.846,187.547 236.139,130.575 236.139,86.15 392.215,165.045 "/>
<g>
	<path style="fill:#266659;" d="M323.827,504.396H104.193c-9.2,0-16.727-7.527-16.727-16.727l0,0c0-9.2,7.527-16.727,16.727-16.727
		h219.634c9.2,0,16.727,7.527,16.727,16.727l0,0C340.553,496.869,333.027,504.396,323.827,504.396z"/>
	<path style="fill:#266659;" d="M323.827,410.069H104.193c-9.2,0-16.727-7.527-16.727-16.727l0,0c0-9.2,7.527-16.727,16.727-16.727
		h219.634c9.2,0,16.727,7.527,16.727,16.727l0,0C340.553,402.543,333.027,410.069,323.827,410.069z"/>
</g>
<g>
	<path style="opacity:0.3;fill:#663C1D;enable-background:new    ;" d="M328.351,377.336c0.703,1.842,1.104,3.828,1.104,5.909l0,0
		c0,9.2-7.527,16.727-16.727,16.727H93.095c-1.676,0-3.293-0.256-4.822-0.72c2.403,6.302,8.503,10.818,15.623,10.818H323.53
		c9.2,0,16.727-7.527,16.727-16.727l0,0C340.255,385.819,335.218,379.419,328.351,377.336z"/>
	<path style="opacity:0.3;fill:#663C1D;enable-background:new    ;" d="M328.351,471.302c0.703,1.842,1.104,3.828,1.104,5.909l0,0
		c0,9.2-7.527,16.727-16.727,16.727H93.095c-1.676,0-3.293-0.255-4.822-0.72c2.403,6.302,8.503,10.818,15.623,10.818H323.53
		c9.2,0,16.727-7.527,16.727-16.727l0,0C340.255,479.785,335.218,473.386,328.351,471.302z"/>
	<path style="fill:#663C1D;" d="M261.497,376.616h-94.973c-9.2,0-16.727-7.527-16.727-16.727l0,0c0-9.2,7.527-16.727,16.727-16.727
		h94.973c9.2,0,16.727,7.527,16.727,16.727l0,0C278.223,369.089,270.696,376.616,261.497,376.616z"/>
</g>
<path style="fill:#56361D;" d="M267.679,344.109c0.987,2.129,1.554,4.489,1.554,6.98l0,0c0,9.2-7.527,16.727-16.727,16.727h-94.973
	c-1.919,0-3.758-0.344-5.479-0.946c2.659,5.735,8.464,9.746,15.172,9.746H262.2c9.2,0,16.727-7.527,16.727-16.727l0,0
	C278.927,352.609,274.205,346.392,267.679,344.109z"/>
<path style="fill:#663C1D;" d="M261.497,41.057h-94.973c-9.2,0-16.727-7.527-16.727-16.727l0,0c0-9.2,7.527-16.727,16.727-16.727
	h94.973c9.2,0,16.727,7.527,16.727,16.727l0,0C278.223,33.53,270.696,41.057,261.497,41.057z"/>
<rect x="119.312" y="410.066" style="fill:#EEBF00;" width="192.36" height="60.872"/>
<g>
	<rect x="119.312" y="410.066" style="fill:#CCA400;" width="192.36" height="19.617"/>
	<rect x="276.612" y="410.066" style="fill:#CCA400;" width="35.051" height="60.872"/>
</g>
<rect x="191.884" y="41.057" style="opacity:0.14;fill:#663C1D;enable-background:new    ;" width="44.258" height="16.992"/>
<g>
	<polygon style="opacity:0.09;fill:#56361D;enable-background:new    ;" points="267.515,66.806 236.139,50.527 236.139,246.025 
		267.515,229.746 	"/>
	<path style="fill:#56361D;" d="M267.679,9.333c0.987,2.129,1.554,4.489,1.554,6.98l0,0c0,9.2-7.527,16.727-16.727,16.727h-94.973
		c-1.919,0-3.758-0.344-5.479-0.946c2.659,5.735,8.464,9.746,15.172,9.746H262.2c9.2,0,16.727-7.527,16.727-16.727l0,0
		C278.927,17.833,274.205,11.616,267.679,9.333z"/>
</g>
<path d="M428.037,141.526L249.055,48.661h12.442c13.415,0,24.331-10.915,24.331-24.331S274.913,0,261.497,0h-94.973
	c-13.415,0-24.331,10.915-24.331,24.331s10.915,24.331,24.331,24.331h17.754v286.897h-17.754c-13.415,0-24.331,10.915-24.331,24.331
	c0,3.225,0.637,6.303,1.781,9.123h-39.78c-13.416,0-24.332,10.915-24.332,24.332c0,13.415,10.915,24.331,24.332,24.331h7.515v45.664
	h-7.515c-13.416,0-24.332,10.915-24.332,24.331c0,13.416,10.915,24.332,24.332,24.332h219.633c13.415,0,24.331-10.915,24.331-24.332
	c0-13.415-10.915-24.331-24.331-24.331h-4.554v-45.664h4.554c13.415,0,24.331-10.915,24.331-24.332
	c0-13.415-10.915-24.331-24.331-24.331h-39.78c1.145-2.82,1.781-5.898,1.781-9.123c0-13.415-10.915-24.331-24.331-24.331h-17.755
	v-84.912l184.294-95.621c2.52-1.308,4.102-3.91,4.102-6.749C432.139,145.437,430.557,142.834,428.037,141.526z M348.8,179.004
	l-105.057-53.106V98.514l131.791,66.62L348.8,179.004z M157.4,24.331c0-5.03,4.093-9.123,9.123-9.123h94.973
	c5.03,0,9.123,4.093,9.123,9.123s-4.093,9.123-9.123,9.123h-25.358h-44.258h-25.358C161.493,33.453,157.4,29.36,157.4,24.331z
	 M332.95,487.668c0,5.031-4.093,9.124-9.123,9.124H104.194c-5.031,0-9.124-4.093-9.124-9.124c0-5.03,4.093-9.123,9.124-9.123h15.119
	H311.67h12.158C328.857,478.546,332.95,482.639,332.95,487.668z M304.065,463.338H126.916v-45.664h177.149V463.338z M332.95,393.343
	c0,5.03-4.093,9.123-9.123,9.123h-12.158H119.312h-15.119c-5.031,0-9.124-4.093-9.124-9.124c0-5.03,4.093-9.123,9.124-9.123h62.33
	h94.973h62.33C328.857,384.22,332.95,388.312,332.95,393.343z M270.619,359.889c0,5.03-4.093,9.123-9.123,9.123h-94.973
	c-5.03,0-9.123-4.093-9.123-9.123c0-5.03,4.093-9.123,9.123-9.123h25.358h44.258h25.358
	C266.527,350.767,270.619,354.859,270.619,359.889z M199.485,335.559V48.661h29.05v1.866v195.499v89.533H199.485z M243.743,142.938
	l88.422,44.697l-88.422,45.877L243.743,142.938L243.743,142.938z M392.169,156.503L243.743,81.474V63.039l164.281,85.237
	L392.169,156.503z"/>
</svg>