<?xml version="1.0" encoding="iso-8859-1"?>
<!-- Uploaded to: SVG Repo, www.svgrepo.com, Generator: SVG Repo Mixer Tools -->
<svg height="800px" width="800px" version="1.1" id="Layer_1" xmlns="http://www.w3.org/2000/svg" xmlns:xlink="http://www.w3.org/1999/xlink" 
	 viewBox="0 0 490 490" xml:space="preserve">
<g>
	<g>
		<g id="XMLID_97_">
			<g>
				<path style="fill:#FFD248;" d="M245,420v60H30c-11,0-20-9-20-20V245h55c0,30.4,24.6,55,55,55s55-24.6,55-55h70v65
					c-30.4,0-55,24.6-55,55S214.6,420,245,420z"/>
				<path style="fill:#AFB6BB;" d="M480,245v215c0,11-9,20-20,20H245v-60c-30.4,0-55-24.6-55-55s24.6-55,55-55v-65h60
					c0-30.4,24.6-55,55-55s55,24.6,55,55H480z"/>
				<path style="fill:#31C0D8;" d="M480,30v215h-65c0-30.4-24.6-55-55-55s-55,24.6-55,55h-60v-70c-30.4,0-55-24.6-55-55
					s24.6-55,55-55V10h215C471,10,480,19,480,30z"/>
			</g>
			<path style="fill:#231F20;" d="M460,0H245c-5.522,0-10,4.478-10,10v45.768c-31.111,4.824-55,31.791-55,64.232
				s23.889,59.408,55,64.232V235h-60c-5.522,0-10,4.478-10,10c0,24.813-20.187,45-45,45s-45-20.187-45-45c0-5.522-4.478-10-10-10H10
				c-5.522,0-10,4.478-10,10v215c0,16.542,13.458,30,30,30h215h215c16.542,0,30-13.458,30-30V245V30C490,13.458,476.542,0,460,0z
				 M200,120c0-24.813,20.187-45,45-45c5.522,0,10-4.478,10-10V20h205c5.514,0,10,4.486,10,10v205h-45.768
				c-4.824-31.111-31.791-55-64.232-55s-59.408,23.889-64.232,55H255v-60c0-5.522-4.478-10-10-10C220.187,165,200,144.813,200,120z
				 M20,460V255h35.768c4.824,31.111,31.791,55,64.232,55s59.408-23.889,64.232-55H235v45.768c-31.111,4.824-55,31.791-55,64.232
				s23.889,59.408,55,64.232V470H30C24.486,470,20,465.514,20,460z M470,460c0,5.514-4.486,10-10,10H255v-50c0-5.522-4.478-10-10-10
				c-24.813,0-45-20.187-45-45s20.187-45,45-45c5.522,0,10-4.478,10-10v-55h50c5.522,0,10-4.478,10-10c0-24.813,20.187-45,45-45
				s45,20.187,45,45c0,5.522,4.478,10,10,10h55V460z"/>
		</g>
	</g>
	<g>
		<path style="fill:#231F20;" d="M455,70h-20V55h-20V35h30c5.522,0,10,4.478,10,10V70z"/>
	</g>
	<g>
		<path style="fill:#231F20;" d="M445,455h-30v-20h20v-15h20v25C455,450.522,450.522,455,445,455z"/>
	</g>
	<g>
		<path style="fill:#231F20;" d="M75,455H45c-5.522,0-10-4.478-10-10v-25h20v15h20V455z"/>
	</g>
</g>
</svg>