<?xml version="1.0" encoding="iso-8859-1"?>
<!-- Uploaded to: SVG Repo, www.svgrepo.com, Generator: SVG Repo Mixer Tools -->
<svg version="1.1" id="Layer_1" xmlns="http://www.w3.org/2000/svg" xmlns:xlink="http://www.w3.org/1999/xlink" 
	 viewBox="0 0 512.001 512.001" xml:space="preserve">
<circle style="fill:#F2F2F2;" cx="255.997" cy="255.997" r="248.111"/>
<path style="fill:#E6E6E6;" d="M103.746,255.999c0-120.627,86.098-221.107,200.184-243.443c-15.512-3.037-31.528-4.67-47.93-4.67
	C118.97,7.887,7.887,118.971,7.887,255.999s111.085,248.114,248.114,248.114c16.402,0,32.417-1.633,47.929-4.67
	C189.843,477.108,103.746,376.628,103.746,255.999z"/>
<g>
	<polygon style="fill:#FF1D25;" points="213.297,320.206 187.2,241.454 255.522,192.597 323.845,241.062 297.748,320.206 	"/>
	<polygon style="fill:#FF1D25;" points="318.502,16.848 327.417,48.782 255.522,96.712 191.617,48.782 200.436,16.832 
		255.999,7.887 	"/>
</g>
<g>
	<polygon style="fill:#BF161C;" points="11.196,240.491 30.257,253.074 95.588,207.107 72.221,123.921 47.83,122.897 
		17.328,187.986 	"/>
	<polygon style="fill:#BF161C;" points="159.228,482.734 185.144,462.069 161.614,385.73 75.279,382.247 63.72,413.323 
		100.565,448.016 	"/>
</g>
<g>
	<path style="fill:#FF1D25;" d="M440.948,417.975l-11.645-31.033l-79.874-1.212l-29.991,81.035l25.982,20.597
		c0,0,51.876-23.298,54.84-27.47C403.227,455.718,440.948,417.975,440.948,417.975z"/>
	<polygon style="fill:#FF1D25;" points="502.457,247.917 483.257,260.671 415.457,207.107 441.292,131.518 463.16,130.537 
		467.387,130.348 496.679,195.51 	"/>
</g>
<rect x="247.522" y="120.412" width="15.773" height="15.773"/>
<rect x="247.522" y="144.597" width="15.773" height="15.773"/>
<rect x="118.003" y="209.106" transform="matrix(-0.9511 -0.309 0.309 -0.9511 178.7684 462.2981)" width="15.977" height="15.774"/>
<rect x="140.795" y="216.503" transform="matrix(-0.9511 -0.309 0.309 -0.9511 220.9519 483.7712)" width="15.977" height="15.774"/>
<rect x="172.481" y="351.88" transform="matrix(-0.809 -0.5878 0.5878 -0.809 114.7547 757.0232)" width="15.773" height="15.976"/>
<rect x="186.607" y="332.506" transform="matrix(-0.809 -0.5878 0.5878 -0.809 151.697 730.279)" width="15.773" height="15.976"/>
<rect x="322.69" y="351.999" transform="matrix(-0.5878 -0.809 0.809 -0.5878 233.9026 838.9459)" width="15.976" height="15.772"/>
<rect x="308.579" y="332.598" transform="matrix(-0.5878 -0.809 0.809 -0.5878 227.1926 796.7266)" width="15.976" height="15.773"/>
<rect x="377.172" y="209.001" transform="matrix(-0.309 -0.9511 0.9511 -0.309 297.6665 650.2541)" width="15.774" height="15.978"/>
<rect x="354.384" y="216.409" transform="matrix(-0.309 -0.9511 0.9511 -0.309 260.7907 638.2776)" width="15.774" height="15.978"/>
<path d="M437.02,74.981C388.667,26.628,324.38,0,255.999,0S123.333,26.628,74.98,74.981C26.628,123.333,0,187.62,0,256.001
	S26.628,388.668,74.98,437.02s112.64,74.981,181.019,74.981s132.668-26.629,181.02-74.981s74.981-112.64,74.981-181.019
	S485.372,123.333,437.02,74.981z M495.863,242.829l-12.206,8.108l-58.932-46.559l22.292-65.223l18.53-0.831
	C483.461,170.112,493.869,205.684,495.863,242.829z M207.567,20.64c15.768-3.21,31.972-4.867,48.433-4.867
	c19.048,0,37.75,2.219,55.83,6.502l6.453,23.118l-62.492,41.662L200.65,45.699L207.567,20.64z M50.818,130.916l15.358,0.645
	l20.31,72.308l-56.371,39.663l-13.398-8.846C19.957,197.593,31.633,162.256,50.818,130.916z M72.835,411.439l7.841-21.08
	l75.045,3.026l20.302,65.869l-19.486,15.538c-25.875-11.777-49.7-28.221-70.404-48.925
	C81.481,421.213,77.055,416.395,72.835,411.439z M173.245,481.643l21.018-16.759l-23.951-77.708l7.074-9.735l-12.761-9.27
	l-6.91,9.51l-87.834-3.543l-8.475,22.788c-29.626-40.728-45.633-89.593-45.633-140.925c0-1.006,0.024-2.008,0.037-3.013
	l14.588,9.631l66.505-46.791l11.444,3.718l4.874-15.001l-11.18-3.632l-23.772-84.63l-17.212-0.722
	c7.497-10.361,15.859-20.205,25.078-29.424c29.368-29.368,65.006-50.183,103.891-61.222l-7.441,26.954l64.941,48.705v12.482h15.773
	v-12.049l73.253-48.835l-6.967-24.959c35.924,11.51,68.84,31.48,96.283,58.922c11.39,11.39,21.495,23.725,30.242,36.825
	l-20.541,0.921l-26.299,76.945l-11.444,3.718l4.874,15.001l11.18-3.632l68.977,54.494l13.303-8.838
	c-1.19,52.704-19.28,102.572-51.671,143.394l-9.69-25.824l-81.305-1.235l-7.073-9.735l-12.76,9.27l6.911,9.511l-30.513,82.441
	l19.452,15.42c-23.45,7.506-48.178,11.415-73.51,11.415C227.315,496.227,199.402,491.219,173.245,481.643z M346.922,478.485
	l-18.1-14.348l26.069-70.436l68.919,1.046l8.969,23.899c-2.252,2.443-4.547,4.857-6.911,7.22
	C402.903,448.83,376.104,466.562,346.922,478.485z"/>
<path d="M307.787,315.455l23.383-71.091l18.901-7.741l-5.978-14.596l-21.486,8.8l-59.308-42.241v-19.799h-15.773v19.974
	l-58.716,42.1l-21.889-8.848l-5.911,14.624l18.705,7.561l23.538,71.267l-5.622,7.285l12.487,9.636l2.906-3.766h84.999l2.905,3.766
	l12.487-9.636L307.787,315.455z M292.04,312.846h-73.041l-22.491-68.098l59.031-42.326l59,42.023L292.04,312.846z"/>
</svg>