<?xml version="1.0" encoding="iso-8859-1"?>
<!-- Uploaded to: SVG Repo, www.svgrepo.com, Generator: SVG Repo Mixer Tools -->
<svg height="800px" width="800px" version="1.1" id="Layer_1" xmlns="http://www.w3.org/2000/svg" xmlns:xlink="http://www.w3.org/1999/xlink" 
	 viewBox="0 0 472.772 472.772" xml:space="preserve">
<path style="fill:#EE5656;" d="M454.386,312.672c10.4-33.9-7.4-73.8-15.6-89.4l-3.2-6.1l-33.3,34.1l-4.1-4.1l36.4-36.4l0.4-0.9
	c11.8-27.8,14-52.5,6.5-73.2l-0.1-0.2c-9.5-23.4-28.5-35.2-34.8-39.2l-3.9-2.4l-2.8,3.7c-3.9,5.2-8.3,9-13.7,11.5l-1.7-5.5
	c14-6.4,16.7-20.1,17.7-24.9c0.1-0.4,0.1-0.7,0.2-0.9l0.2-1l-0.1-1c-2.8-19.5-9.7-32-21-38.1c-6.2-3.3-13.7-4.9-22.2-4.9
	c-10.2,0-19.4,2.4-24,3.8l-4.9,1.5l1.6,4.9c2,5.9,3.2,13.1,3.6,20.6h-6c-1.6-26.8-15.9-44.5-42.6-52.6l-0.2-0.1
	c-2.4-0.6-4.9-0.9-7.3-0.9c-5.6,0-10.7,1.6-15.3,4.9l-0.2,0.1l-0.1,0.1c-6.3,5.3-9.8,12.3-9.8,19.8v386.4c0,11.2,5.8,22.6,15.5,30.3
	c6.3,5.1,14.2,7.8,22.6,7.8c3.3,0,6.5-0.4,9.8-1.2c32.8-8.8,52.6-29,57.4-58.6l6.1,0.6c-2,12.2-6.5,23.5-13.7,33.4l-5.3,7.5l9.2,0.4
	c3.2,0.1,6.3,0.2,9.3,0.2c31.6,0,53.5-8,66.8-24.5c18.5-23.3,13.4-56.2,11.4-65.7l-1.5-7.2l-6.1,4.1c-1.4,0.9-2.7,1.9-4,2.8
	c-2,1.4-4.1,2.9-6.2,4.2l-2.8-5.5C438.886,341.672,449.486,328.772,454.386,312.672z M430.386,306.672c-2.9,10.9-10.3,19.2-22,24.7
	c-6.9,3-11.7,10.8-11.7,19c0,3.2,1,6.2,1.9,8.8l0.1,0.3l16.8,33.6l3.5-1.7c-1.4,4.6-3.3,8.6-5.9,11.9c-4.3,5.4-11.4,9.3-21.6,11.8
	c1.2-4.6,2-9.4,2.5-14.6v-0.2v-1.8c0-10.7-8.3-19.9-18.9-21l-16-1.6c-0.6-0.1-1.3-0.1-1.9-0.1c-10.9,0-20.1,8.4-21.1,19v0.1
	c-0.7,10.9-4.2,19.2-10.5,25.6c-6.9,6.9-16.1,12-28.3,15.5l-0.4,0.1l-0.4,0.2c-0.5,0.3-1.3,0.3-2.6,0.3c-2.5,0-4.5-0.7-6.5-2.1
	c-3.4-2.9-5.3-7-5.3-11.3v-386.1c15.8,5.8,22,15,22,32.5v3.7l1.5,1.5c3.9,3.9,8.3,8.3,11.2,13.3l1.4,2.5h22.6c11.6,0,21-9.4,21-21
	c0-2.9,0-6.1-0.3-9.2c2.3,0.3,4.3,0.8,5.9,1.6c3.7,1.9,6.8,8.5,7.6,16.5c-0.1,0.6-0.5,3-3.6,3.8l-0.2,0.1
	c-8.7,2.9-14.6,10.9-14.6,19.9c0,1.8,0,4.2,1.2,6.8l5.4,14.8c2.5,8.8,10.5,14.9,19.6,14.9c2.4,0,4.8-0.4,7-1.3
	c6-2.3,11.2-4.9,15.5-7.8c4,4,8.6,9.6,11.7,16.9c5,13.7,3.5,30.7-4.4,50.6l-29.5,29.5c-4.5,3.7-7.7,9.4-8.8,15.6
	c-1.9,9.8,1.1,19.4,8.6,26.8c4.8,4.8,12.4,7.9,19.5,7.9c7.7,0,14.3-2.6,19.5-7.9l5.4-5.4
	C432.486,280.872,433.486,295.672,430.386,306.672z"/>
<path style="fill:#F69494;" d="M410.386,335.972c13.6-6.4,21.6-16,24.8-28c4.8-16.8,0-37.6-5.6-53.6l-11.2,11.2
	c-4.8,4-10.4,6.4-16,6.4s-12-2.4-16-6.4c-6.4-6.4-8.8-14.4-7.2-22.4c0.8-4.8,3.2-9.6,7.2-12.8l30.4-30.4c8.8-21.6,10.4-40,4.8-55.2
	c-4-9.6-10.4-16.8-16-21.6c-4.8,4-11.2,7.2-17.6,9.6c-8,3.2-17.6-1.6-20-10.4l-4.8-15.2c-0.8-1.6-0.8-3.2-0.8-4.8
	c0-6.4,4-12.8,11.2-15.2c5.6-1.6,7.2-6.4,7.2-8.8c-0.8-8-4-17.6-10.4-20.8c-3.2-1.6-7.2-2.4-12-2.4c-0.8,0-1.6,0-2.4,0
	c0.8,4,0.8,8.8,0.8,14.4c0,8.8-7.2,16-16,16h-20l-12-14.4v-1.6c0-20-8-32-26.4-37.6c-0.8,0-0.8,0-1.6,0c-0.8,0-1.6,0-2.4,0.8
	c-0.8,0.8-1.6,2.4-1.6,3.2v161.6v225.6c0,5.6,2.4,11.2,7.2,15.2c3.2,2.4,6.4,3.2,9.6,3.2c1.6,0,3.2,0,4.8-0.8
	c13.6-4,23.2-9.6,30.4-16.8c7.2-7.2,11.2-16.8,12-28.8c0.8-8.8,8.8-15.2,17.6-14.4l16,1.6c8,0.8,14.4,8,14.4,16c0,0.8,0,0.8,0,1.6
	c-0.8,8-2.4,15.2-4.8,21.6c15.2-2.4,26.4-7.2,32.8-15.2c5.6-7.2,8-16,8.8-24l-8,4l-14.4-28.8c-0.8-2.4-1.6-4.8-1.6-7.2
	C401.586,344.772,404.786,338.372,410.386,335.972z"/>
<path style="fill:#EE5656;" d="M208.786,16.172l-0.1-0.1l-0.2-0.1c-4.6-3.3-9.7-4.9-15.3-4.9c-2.4,0-4.8,0.3-7.3,0.9h-0.2l-0.2,0.1
	c-25.3,8.2-39.4,26.3-40.9,52.6h-6c0.4-7.1,1.6-13.8,3.7-20.8l1.5-4.9l-4.9-1.4c-6.6-1.9-15.4-4.1-24.7-4.1
	c-8.3,0-15.5,1.8-21.6,5.3c-11.3,6.1-18.1,18.6-20.9,38l-0.1,0.4v0.4c0,0.8,0.2,19.2,17.3,28.3l-1.8,5.8c-5.3-2.6-9.8-6.3-13.7-11.5
	l-2.4-3.2l-3.6,1.6c-8.6,3.8-27.1,17-35.4,39.6c-8.3,20.9-6.1,45.6,6.5,73.5l0.4,0.8l36.3,36.3l-4.1,4.1l-34.3-34.3l-3,6.4
	c-16.7,35-22,65.8-15.5,89c4,15.9,14.7,29.1,31,38.4l-2.8,5.6c-3.2-1.8-6.3-3.9-9.7-6.8l-6.8-5.6l-1.4,8.7
	c-4.5,28.4-0.3,50.4,12.3,65.6c13.7,16.2,36.4,24.4,67.4,24.4c2.8,0,5.7-0.1,8.7-0.2l8.8-0.4l-4.9-7.4
	c-7.5-11.3-11.9-21.8-13.7-33.6l6.1-0.6c4.9,28.8,24.6,49,57.3,58.5l0.2,0.1c3.2,0.8,6.5,1.2,9.7,1.2c8.4,0,16.2-2.7,22.5-7.7
	c9.9-7.2,15.6-18.3,15.6-30.4v-388C218.586,28.472,215.086,21.372,208.786,16.172z M191.786,423.172c0,4.5-2,9.1-5,11
	c-2.4,1.6-4.6,2.4-6.8,2.4c-0.2,0-0.8-0.2-1.2-0.3c-0.8-0.2-1.7-0.4-2.8-0.5c-13.3-4-21.5-8.5-27.5-15.2c-6.7-7.5-10-15.4-10.7-25.8
	v-0.1c-1-10.7-10.2-19-21.1-19c-0.6,0-1.2,0-1.8,0.1l-15.9,0.8h-0.2c-10.6,1.1-18.9,10.3-18.9,21v1.9v0.3c0.5,4.9,1.5,9.9,2.7,14.8
	c-9.6-2.2-17.2-6.3-21.9-12.1l-0.1-0.2c-2.6-3-4.6-7-6-11.8l3.6,1.8l16.8-33.6l0.1-0.3c0.9-2.6,1.9-5.6,1.9-8.8
	c0-8.1-4.7-15.8-11.6-18.9c-12.5-7.1-19.6-15-22.2-24.8c-3.2-11.6-2.2-25.7,3-43l5.6,5.6l0.2,0.1c5.9,4.9,12.6,7.6,19.2,7.6
	c7.7,0,14.2-2.6,19.4-7.7c7.4-6.5,10.7-16.8,8.7-27c-1-5.6-3.7-10.5-8.6-15.4l-29.7-29.7c-7.9-19.9-9.4-36.9-4.4-50.6
	c3.1-7.3,7.6-13,11.7-16.9c4.3,2.9,9.5,5.5,15.5,7.8l0.2,0.1h0.2c1.8,0.6,3.8,0.8,5.7,0.8c9.3,0,17.9-6.1,20.5-14.5l4.7-14.9
	c1.1-2.5,1.1-4.9,1.1-6.6c0-8.4-6.1-16.7-14.4-19.9l-0.2-0.1c-1.9-0.6-2.9-2.4-3.6-4.4c1.4-6.5,3.4-13.3,7.7-16.1
	c1.7-0.8,3.9-1.4,6.4-1.6c-0.3,3.5-0.3,6.9-0.3,10.1c0,11.6,9.4,21,21,21h22.9l1.4-2.5c2.9-5.1,6.5-9.4,10.9-13l1.8-1.5v-4
	c0-17.5,6.2-26.7,22-32.5L191.786,423.172L191.786,423.172z"/>
<path style="fill:#F69494;" d="M195.186,32.772c-0.8-0.8-1.6-0.8-2.4-0.8c0,0-0.8,0-1.6,0c-18.4,5.6-26.4,17.6-26.4,37.6v1.6
	c0,0-3.9,12.7-12.8,14.4h-19.2c-8.8,0-16-7.2-16-16c0-5.6,0-10.4,0.8-15.2c-0.8,0-1.6,0-2.4,0c-4.8,0-8.8,0.8-12,2.4
	c-6.4,4-8.8,12.8-10.4,20.8c0,2.4,2.4,6.4,7.2,8.8c6.4,2.4,11.2,8.8,11.2,15.2c0,1.6,0,3.2-0.8,4.8l-4.8,15.2
	c-3.2,8-12,12.8-20,10.4c-6.4-2.4-12-5.6-17.6-9.6c-5.6,4.8-12,12-16,21.6c-5.6,15.2-4,33.6,4.8,55.2l30.4,30.4c4,4,6.4,8,7.2,12.8
	c1.6,8-0.8,16.8-7.2,22.4c-4.8,4-10.4,6.4-16,6.4s-11.2-2.4-16-6.4l-11.2-11.2c-5.6,16-10.4,36.8-5.6,53.6c3.2,12,12,20.8,24.8,28
	c5.6,2.4,8.8,8.8,8.8,14.4c0,2.4-0.8,4.8-1.6,7.2l-14.4,28l-8-4c0.8,8.8,3.2,17.6,8.8,24c6.4,8,17.6,13.6,32.8,15.2
	c-2.4-7.2-4-14.4-4.8-21.6c0-0.8,0-0.8,0-1.6c0-8,6.4-15.2,14.4-16l16-1.6c8.8-0.8,16.8,5.6,17.6,14.4c1.6,12,4.8,20.8,12,28.8
	s16.8,12.8,30.4,16.8c1.6,0,3.2,0.8,4.8,0.8c3.2,0,7.2-1.6,9.6-3.2c4.8-3.2,7.2-9.6,7.2-15.2v-224v-161.6
	C196.786,35.172,195.986,33.572,195.186,32.772z"/>
<g>
	<path style="fill:#42210B;" d="M228.786,35.972v388c0,16-7.2,30.4-20,39.2c-8.8,6.4-18.4,9.6-28.8,9.6c-4.8,0-8.8-0.8-13.6-1.6
		c-14.4-4-26.4-10.4-36-17.6c-8,0.8-15.2,1.6-22.4,1.6c-35.2,0-60.8-9.6-76-28.8c-24.8-30.4-14.4-73.6-12-84.8
		c-5.6-7.2-9.6-15.2-12.8-24.8c-12-41.6,12-90.4,20-104c-12.8-29.6-14.4-56.8-5.6-80c10.4-27.2,32-40.8,40-45.6
		c0-3.2-0.8-6.4-0.8-9.6v-0.8c2.4-23.2,11.2-39.2,26.4-47.2c20-11.2,44.8-5.6,57.6-1.6c9.6-14.4,24-21.6,37.6-25.6
		c11.2-3.2,23.2-1.6,32,5.6C223.186,14.372,228.786,24.772,228.786,35.972z M212.786,423.972v-388c0-6.4-3.2-12-8-16
		s-12-4.8-18.4-3.2c-24.8,8-37.6,25.6-37.6,52.8h-16c0-10.4,1.6-20,4-27.2c-10.4-3.2-28.8-6.4-42.4,0.8c-10.4,5.6-16,17.6-18.4,34.4
		c0,2.4,1.6,18.4,18.4,24l-4,16c-9.6-3.2-16-8.8-20.8-15.2c-6.4,4-24,15.2-32.8,36.8c-7.2,20-5.6,43.2,6.4,69.6l39.2,39.2
		l-11.2,11.2l-32.8-32.8c-8.8,16.8-24.8,54.4-15.2,85.6c4.8,16,16,28.8,32.8,37.6l-7.2,14.4c-5.6-2.4-11.2-6.4-15.2-9.6
		c-2.4,16-4.8,43.2,10.4,61.6c13.6,16.8,37.6,24,72,22.4c-8.8-11.2-13.6-24.8-15.2-40.8l16-1.6c3.2,30.4,21.6,50.4,54.4,59.2
		c9.6,2.4,20,0.8,28-5.6C207.986,444.772,212.786,435.172,212.786,423.972z"/>
	<path style="fill:#42210B;" d="M188.786,405.572h-16c0-35.2-20-49.6-20-49.6l8.8-13.6
		C162.386,343.972,188.786,361.572,188.786,405.572z"/>
	<path style="fill:#42210B;" d="M182.386,197.572l-3.2,16c-20-4.8-37.6,20-44,31.2c3.2,18.4,4,41.6-2.4,67.2l-16-4
		c3.2-12,4-23.2,4-33.6c0-12-1.6-22.4-3.2-32c-5.6-24-15.2-40-15.2-40l13.6-8.8c0.8,0.8,8,12,13.6,30.4
		C140.786,209.572,159.986,191.972,182.386,197.572z"/>
	<path style="fill:#42210B;" d="M165.586,70.872L165.586,70.872c-5.2,4-9.6,8.9-13.2,14.7l0,0l-0.1,0.1c-0.1,0.1-0.1,0.2-0.2,0.3
		l0,0c-11.8,19.1-18.2,42-19,46l16,3.2c3.2-14.4,19.2-57.6,40-57.6v-16C180.486,61.572,172.686,65.472,165.586,70.872z"/>
	<path style="fill:#42210B;" d="M284.186,61.572v16c20.8,0,36.8,43.2,40,57.6l16-3.2c-0.8-4-7.1-26.9-19-46l0,0
		c-0.1-0.1-0.1-0.2-0.2-0.3l-0.1-0.1l0,0c-3.6-5.8-8-10.7-13.2-14.7l0,0C300.686,65.472,292.786,61.572,284.186,61.572z"/>
	<path style="fill:#42210B;" d="M259.186,7.172c9.6-7.2,20.8-8.8,32-5.6c13.6,4,28,12,37.6,25.6c12-4,37.6-9.6,57.6,1.6
		c15.2,8.8,24,24.8,26.4,47.2v0.8c0,3.2-0.8,6.4-1.6,10.4c8,4.8,29.6,18.4,40,45.6c8.8,23.2,7.2,50.4-5.6,80c8,13.6,32,61.6,20,104
		c-2.4,9.6-7.2,17.6-12.8,24.8c3.2,11.2,13.6,54.4-11.2,84.8c-15.2,19.2-40.8,28.8-76,28.8c-7.2,0-14.4,0-22.4-1.6
		c-9.6,8-21.6,13.6-36,17.6c-4,1.6-8.8,1.6-13.6,1.6c-10.4,0-20.8-3.2-28.8-9.6c-12.8-9.6-20-24-20-39.2v-388
		C244.786,24.772,250.386,14.372,259.186,7.172z M274.386,451.172c8,6.4,18.4,8,28,5.6c32.8-9.6,51.2-29.6,54.4-59.2l16,1.6
		c-1.6,16-7.2,28.8-15.2,40.8c34.4,1.6,58.4-6.4,72-22.4c15.2-19.2,13.6-46.4,10.4-61.6c-4.8,4-9.6,7.2-15.2,9.6l-7.2-14.4
		c17.6-8.8,28.8-21.6,33.6-37.6c8.8-31.2-7.2-68.8-15.2-85.6l-32,32.8l-11.2-11.2l39.2-39.2c12-26.4,14.4-49.6,6.4-69.6
		c-8-21.6-25.6-33.6-32.8-36.8c-4.8,6.4-11.2,12-20.8,15.2l-6.4-17.6c16.8-5.6,18.4-21.6,18.4-24c-2.4-16.8-8-28.8-18.4-34.4
		c-13.6-8-32-4-42.4-0.8c2.4,8,4,16.8,4,27.2h-16c0-27.2-12.8-44.8-37.6-52.8c-6.4-1.6-12.8-0.8-18.4,3.2c-4.8,4-8,9.6-8,16v388
		C260.786,435.172,265.586,444.772,274.386,451.172z"/>
	<path style="fill:#42210B;" d="M284.786,405.572h16c0-35.2,20-49.6,20-49.6l-8.8-13.6
		C311.186,343.972,284.786,361.572,284.786,405.572z"/>
	<path style="fill:#42210B;" d="M291.186,197.572l4,15.2c20-4.8,37.6,20,44,31.2c-3.2,18.4-4,41.6,2.4,67.2l15.2-4
		c-3.2-12-4-23.2-4-33.6c0-12,1.6-22.4,3.2-32c5.6-24,15.2-40,15.2-40l-13.6-8.8c-0.8,0.8-8,12-13.6,30.4
		C332.786,209.572,314.386,191.972,291.186,197.572z"/>
</g>
</svg>