<?xml version="1.0" encoding="iso-8859-1"?>
<!-- Uploaded to: SVG Repo, www.svgrepo.com, Generator: SVG Repo Mixer Tools -->
<svg height="800px" width="800px" version="1.1" id="Layer_1" xmlns="http://www.w3.org/2000/svg" xmlns:xlink="http://www.w3.org/1999/xlink" 
	 viewBox="0 0 432.011 432.011" xml:space="preserve">
<g transform="translate(0 -1020.36)" shape-rendering="auto" image-rendering="auto" color-rendering="auto" color-interpolation="sRGB">
	<path style="fill:#5A3392;" d="M205.942,1020.373c-2.25,0.16-4.456,0.48-6.531,1.248l0,0c-8.29,2.97-15.124,11.208-15.125,21.5
		v16.063c0,2.65-1.322,5.078-3.437,6.596l-32.25,23.154c-1.306,0.943-2.544,1.906-3.656,3.063l-81.969,85.406
		c-8.509,8.861-9.261,22.65-1.875,32.469l18.531,24.813c6.065,8.064,17,10.83,26.219,6.719l100.406-44.75
		c4.898-2.182,9.787,1.023,9.781,6.5v10.875c-0.002,2.195-0.845,4.297-2.344,5.875l-102.75,107.969
		c-4.336,4.561-6.748,10.582-6.75,16.875v83.531c-0.004,13.182,10.82,24.102,24,24.094l223.812-0.256
		c13.177-0.008,23.968-10.914,23.969-24.094V1299.24H358.38v-12.813h17.594v-16H358.38v-12.783h17.594v-98.342
		c0-3.672-0.99-7.275-2.562-10.594c0.024,0.121,0.046,0.244,0.064,0.367l-0.781-2c-0.021-0.053-0.042-0.107-0.064-0.16l0,0
		l-49.594-86.313c-7.407-12.891-26.474-13.771-34.969-1.568l-3.656,5.344c-0.829,1.184-2.154,1.869-3.563,1.875l-22.437,0.16
		c-2.044,0.01-3.994-0.881-5.313-2.5l-28.469-35.188c-4.862-6-11.963-8.642-18.719-8.344h0.032L205.942,1020.373z"/>
	<g>
		<path style="fill:#29A3EC;" d="M208.668,1036.373c1.252,0.24,2.491,1.008,3.628,2.408l28.438,35.186
			c4.342,5.365,10.942,8.535,17.844,8.5l22.437-0.24c6.618,0,12.753-3.289,16.531-8.719l3.689-5.219
			c2.183-3.131,5.999-2.938,7.906,0.367L358.86,1155c0.756,1.313,1.185,2.842,1.185,4.373v212.938H120.264v-27.375
			c0.001-2.201,0.877-4.33,2.377-5.908l102.75-107.969c4.336-4.553,6.744-10.588,6.75-16.875v-11
			c0.018-16.387-17.409-27.709-32.375-21.031l-100.407,44.783c-2.485,1.104-5.309,0.305-6.969-1.904l-18.531-24.688
			c-2.721-3.615-2.407-8.648,0.72-11.906l81.969-85.281c0.423-0.416,0.907-0.832,1.409-1.184l32.25-23.156
			c6.327-4.529,10.156-11.813,10.156-19.594v-16.064c0-3.641,1.881-5.441,4.469-6.374l0,0c1.294-0.48,2.588-0.656,3.846-0.368
			L208.668,1036.373z"/>
		<path style="fill:#29A3EC;" d="M120.262,1388.375h239.781v39.688c0,4.588-3.55,8.154-8.031,8.154l-223.813,0.16
			c-4.475,0.002-7.939-3.453-7.937-8.031v-39.938L120.262,1388.375z"/>
	</g>
	<path style="fill:#5A3392;" d="M215.659,1147.092c0.302,0.545,0.423,1.119,0.689,1.658
		C216.182,1148.174,215.951,1147.617,215.659,1147.092L215.659,1147.092z"/>
	<path style="fill:#29A3EC;" d="M208.651,1036.373c1.252,0.24,2.491,1.008,3.622,2.408l28.438,35.186
		c4.342,5.365,10.943,8.535,17.844,8.5l22.438-0.24c6.618,0,12.753-3.289,16.531-8.719l3.689-5.219
		c2.183-3.131,5.999-2.951,7.906,0.367L358.837,1155c0.756,1.313,1.185,2.842,1.185,4.373v212.938H120.241v-27.375
		c0.001-2.201,0.877-4.33,2.377-5.908l102.75-107.969c4.336-4.553,6.744-10.588,6.75-16.875v-11
		c0.018-16.387-17.409-27.709-32.375-21.031l-100.406,44.783c-2.485,1.104-5.309,0.305-6.969-1.904l-18.531-24.688
		c-2.721-3.615-2.407-8.648,0.72-11.906l81.969-85.281c0.423-0.416,0.901-0.832,1.403-1.184l32.25-23.156
		c6.327-4.529,10.156-11.813,10.156-19.594v-16.064c0-3.641,1.881-5.441,4.469-6.374l0,0c1.294-0.48,2.588-0.64,3.846-0.368
		L208.651,1036.373z"/>
	<path style="fill:#3CDEF6;" d="M209.191,1048.613c1.161,0.24,2.31,0.928,3.356,2.232l26.364,32.621
		c4.027,4.971,10.145,7.914,16.543,7.881l20.802-0.24c6.136,0,11.823-3.047,15.326-8.082l3.417-4.838
		c2.026-2.902,5.563-2.732,7.33,0.367l46.094,80.049c0.701,1.217,1.101,2.637,1.101,4.051v197.414H127.224v-25.379
		c0-2.039,0.81-4.016,2.201-5.479l95.259-100.098c4.021-4.221,6.252-9.816,6.258-15.643v-10.199
		c0.018-15.191-16.139-25.688-30.014-19.5l-93.086,41.518c-2.304,1.023-4.922,0.305-6.461-1.766l-17.18-22.887
		c-2.522-3.35-2.231-8.02,0.665-11.039l75.993-79.066c0.363-0.367,0.835-0.768,1.3-1.104l29.899-21.467
		c5.866-4.197,9.416-10.953,9.416-18.166v-14.891c0-3.375,1.742-5.045,4.142-5.908l0,0c1.197-0.416,2.401-0.607,3.568-0.367
		L209.191,1048.613z"/>
	<path style="fill:#EE746C;" d="M120.262,1388.375h239.781v39.688c0,4.588-3.55,8.152-8.031,8.154l-223.813,0.16
		c-4.475,0.002-7.939-3.453-7.937-8.031v-39.938L120.262,1388.375z"/>
	<path style="fill:#FB9761;" d="M132.759,1390.873h214.788v35.551c0,4.111-3.181,7.305-7.194,7.305l-200.484,0.16
		c-4.009,0.002-7.112-3.096-7.11-7.195v-35.773L132.759,1390.873z"/>
	<path style="fill:#5A3392;" d="M205.943,1020.373c-2.25,0.16-4.457,0.48-6.532,1.248l0,0c-8.29,2.97-15.124,11.208-15.125,21.5
		v16.063c0,2.648-1.33,5.08-3.435,6.596l-32.25,23.154c-1.306,0.943-2.546,1.906-3.659,3.061L62.974,1177.4
		c-8.509,8.859-9.261,22.65-1.875,32.469l18.532,24.811c6.065,8.064,17,10.83,26.218,6.719l100.406-44.748
		c4.898-2.184,9.787,1.023,9.781,6.5v10.873c-0.002,2.195-0.841,4.295-2.346,5.879l-102.75,107.969
		c-4.336,4.561-6.748,10.582-6.75,16.875v83.531c-0.004,13.182,10.82,24.102,24,24.094l223.812-0.24
		c13.177-0.01,23.968-10.916,23.969-24.094v-128.781h-15.938v73.031H120.254v-27.375c0.001-2.201,0.877-4.33,2.377-5.908
		l102.75-107.969c4.336-4.553,6.744-10.588,6.751-16.875v-11c0.018-16.387-17.409-27.709-32.375-21.031l-100.407,44.783
		c-2.485,1.104-5.309,0.305-6.969-1.906l-18.531-24.686c-2.721-3.615-2.407-8.65,0.72-11.906l81.969-85.281
		c0.423-0.416,0.907-0.832,1.409-1.184l32.25-23.154c6.327-4.529,10.156-11.813,10.156-19.594v-16.064
		c0-3.641,1.881-5.441,4.469-6.374l0,0c1.294-0.48,2.588-0.672,3.846-0.368c1.252,0.24,2.491,1.008,3.622,2.406l28.438,35.188
		c4.342,5.363,10.942,8.535,17.844,8.5l22.437-0.24c6.619,0,12.753-3.291,16.531-8.719l3.689-5.219
		c2.183-3.133,5.999-2.926,7.906,0.367l49.719,86.342c0.756,1.313,1.185,2.844,1.185,4.373v98.313h15.938v-98.342
		c0-3.67-0.992-7.275-2.564-10.594c0.023,0.121,0.043,0.244,0.061,0.367l-0.78-2.002c-0.02-0.053-0.04-0.107-0.061-0.16l0,0
		l-49.594-86.313c-7.407-12.891-26.474-13.771-34.969-1.553l-3.659,5.346c-0.828,1.199-2.153,1.869-3.562,1.875l-22.438,0.16
		c-2.044,0.01-3.997-0.881-5.316-2.498l-28.469-35.188c-4.862-5.998-11.963-8.64-18.719-8.343h0.032L205.943,1020.373z
		 M360.036,1270.469v15.998h15.938v-15.998H360.036z M120.255,1388.375h239.781v39.688c0,4.588-3.55,8.154-8.031,8.154
		l-223.812,0.16c-4.475,0.002-7.939-3.453-7.938-8.031v-39.938L120.255,1388.375z"/>
</g>
</svg>